<svg xmlns:xlink="http://www.w3.org/1999/xlink" width="58.562ex" height="6.176ex" style="font-size: 15px; vertical-align: -4.005ex;" viewBox="0 -934.9 25214 2659.1" role="img" focusable="false" xmlns="http://www.w3.org/2000/svg">
<defs>
<path stroke-width="1" id="E1-MJMAIN-28" d="M94 250Q94 319 104 381T127 488T164 576T202 643T244 695T277 729T302 750H315H319Q333 750 333 741Q333 738 316 720T275 667T226 581T184 443T167 250T184 58T225 -81T274 -167T316 -220T333 -241Q333 -250 318 -250H315H302L274 -226Q180 -141 137 -14T94 250Z"></path>
<path stroke-width="1" id="E1-MJMAIN-29" d="M60 749L64 750Q69 750 74 750H86L114 726Q208 641 251 514T294 250Q294 182 284 119T261 12T224 -76T186 -143T145 -194T113 -227T90 -246Q87 -249 86 -250H74Q66 -250 63 -250T58 -247T55 -238Q56 -237 66 -225Q221 -64 221 250T66 725Q56 737 55 738Q55 746 60 749Z"></path>
</defs>
<g stroke="currentColor" fill="currentColor" stroke-width="0" transform="matrix(1 0 0 -1 0 0)">
<text font-family="monospace" stroke="none" transform="scale(71.759) matrix(1 0 0 -1 0 0)">中</text>
<g transform="translate(1148,0)">
<text font-family="monospace" stroke="none" transform="scale(71.759) matrix(1 0 0 -1 0 0)">、</text>
</g>
<g transform="translate(2462,0)">
<g transform="translate(513,0)">
<text font-family="monospace" stroke="none" transform="scale(71.759) matrix(1 0 0 -1 0 0)">蒙</text>
</g>
<g transform="translate(0,-1207)">
 <use transform="scale(0.707)" xlink:href="#E1-MJMAIN-28" x="0" y="0"></use>
<g transform="translate(275,0)">
<text font-family="monospace" stroke="none" transform="scale(50.74127551116547) matrix(1 0 0 -1 0 0)">赤</text>
</g>
<g transform="translate(1087,0)">
<text font-family="monospace" stroke="none" transform="scale(50.74127551116547) matrix(1 0 0 -1 0 0)">化</text>
</g>
 <use transform="scale(0.707)" xlink:href="#E1-MJMAIN-29" x="2685" y="0"></use>
</g>
</g>
<g transform="translate(4804,0)">
<text font-family="monospace" stroke="none" transform="scale(71.759) matrix(1 0 0 -1 0 0)">、</text>
</g>
<g transform="translate(6118,0)">
<g transform="translate(513,0)">
<text font-family="monospace" stroke="none" transform="scale(71.759) matrix(1 0 0 -1 0 0)">印</text>
</g>
<g transform="translate(0,-1207)">
 <use transform="scale(0.707)" xlink:href="#E1-MJMAIN-28" x="0" y="0"></use>
<g transform="translate(275,0)">
<text font-family="monospace" stroke="none" transform="scale(50.74127551116547) matrix(1 0 0 -1 0 0)">赤</text>
</g>
<g transform="translate(1087,0)">
<text font-family="monospace" stroke="none" transform="scale(50.74127551116547) matrix(1 0 0 -1 0 0)">化</text>
</g>
 <use transform="scale(0.707)" xlink:href="#E1-MJMAIN-29" x="2685" y="0"></use>
</g>
</g>
<g transform="translate(8460,0)">
<text font-family="monospace" stroke="none" transform="scale(71.759) matrix(1 0 0 -1 0 0)">、</text>
</g>
<g transform="translate(9775,0)">
<g transform="translate(513,0)">
<text font-family="monospace" stroke="none" transform="scale(71.759) matrix(1 0 0 -1 0 0)">日</text>
</g>
<g transform="translate(0,-1207)">
 <use transform="scale(0.707)" xlink:href="#E1-MJMAIN-28" x="0" y="0"></use>
<g transform="translate(275,0)">
<text font-family="monospace" stroke="none" transform="scale(50.74127551116547) matrix(1 0 0 -1 0 0)">赤</text>
</g>
<g transform="translate(1087,0)">
<text font-family="monospace" stroke="none" transform="scale(50.74127551116547) matrix(1 0 0 -1 0 0)">化</text>
</g>
 <use transform="scale(0.707)" xlink:href="#E1-MJMAIN-29" x="2685" y="0"></use>
</g>
</g>
<g transform="translate(12116,0)">
<text font-family="monospace" stroke="none" transform="scale(71.759) matrix(1 0 0 -1 0 0)">、</text>
</g>
<g transform="translate(13431,0)">
<g transform="translate(513,0)">
<text font-family="monospace" stroke="none" transform="scale(71.759) matrix(1 0 0 -1 0 0)">韩</text>
</g>
<g transform="translate(0,-1207)">
 <use transform="scale(0.707)" xlink:href="#E1-MJMAIN-28" x="0" y="0"></use>
<g transform="translate(275,0)">
<text font-family="monospace" stroke="none" transform="scale(50.74127551116547) matrix(1 0 0 -1 0 0)">赤</text>
</g>
<g transform="translate(1087,0)">
<text font-family="monospace" stroke="none" transform="scale(50.74127551116547) matrix(1 0 0 -1 0 0)">化</text>
</g>
 <use transform="scale(0.707)" xlink:href="#E1-MJMAIN-29" x="2685" y="0"></use>
</g>
</g>
<g transform="translate(15772,0)">
<text font-family="monospace" stroke="none" transform="scale(71.759) matrix(1 0 0 -1 0 0)">、</text>
</g>
<g transform="translate(16920,0)">
<text font-family="monospace" stroke="none" transform="scale(71.759) matrix(1 0 0 -1 0 0)">朝</text>
</g>
<g transform="translate(18068,0)">
<text font-family="monospace" stroke="none" transform="scale(71.759) matrix(1 0 0 -1 0 0)">、</text>
</g>
<g transform="translate(19383,0)">
<g transform="translate(513,0)">
<text font-family="monospace" stroke="none" transform="scale(71.759) matrix(1 0 0 -1 0 0)">尼</text>
</g>
<g transform="translate(0,-1207)">
 <use transform="scale(0.707)" xlink:href="#E1-MJMAIN-28" x="0" y="0"></use>
<g transform="translate(275,0)">
<text font-family="monospace" stroke="none" transform="scale(50.74127551116547) matrix(1 0 0 -1 0 0)">赤</text>
</g>
<g transform="translate(1087,0)">
<text font-family="monospace" stroke="none" transform="scale(50.74127551116547) matrix(1 0 0 -1 0 0)">化</text>
</g>
 <use transform="scale(0.707)" xlink:href="#E1-MJMAIN-29" x="2685" y="0"></use>
</g>
</g>
<g transform="translate(21724,0)">
<text font-family="monospace" stroke="none" transform="scale(71.759) matrix(1 0 0 -1 0 0)">、</text>
</g>
<g transform="translate(23039,0)">
<g transform="translate(513,0)">
<text font-family="monospace" stroke="none" transform="scale(71.759) matrix(1 0 0 -1 0 0)">哈</text>
</g>
<g transform="translate(0,-1207)">
 <use transform="scale(0.707)" xlink:href="#E1-MJMAIN-28" x="0" y="0"></use>
<g transform="translate(275,0)">
<text font-family="monospace" stroke="none" transform="scale(50.74127551116547) matrix(1 0 0 -1 0 0)">赤</text>
</g>
<g transform="translate(1087,0)">
<text font-family="monospace" stroke="none" transform="scale(50.74127551116547) matrix(1 0 0 -1 0 0)">化</text>
</g>
 <use transform="scale(0.707)" xlink:href="#E1-MJMAIN-29" x="2685" y="0"></use>
</g>
</g>
</g>
</svg>